<?xml version="1.0" standalone="no"?>
<!DOCTYPE svg PUBLIC "-//W3C//DTD SVG 20010904//EN"
 "http://www.w3.org/TR/2001/REC-SVG-20010904/DTD/svg10.dtd">
<svg version="1.0" xmlns="http://www.w3.org/2000/svg"
 width="700.000000pt" height="700.000000pt" viewBox="0 0 700.000000 700.000000"
 preserveAspectRatio="xMidYMid meet">
<metadata>
Created by potrace 1.14, written by Peter Selinger 2001-2017
</metadata>
<g transform="translate(0.000000,700.000000) scale(0.100000,-0.100000)"
fill="#000000" stroke="none">
<path d="M3245 6986 c-289 -61 -527 -293 -586 -571 -17 -84 -18 -91 -19 -170
-1 -145 25 -245 95 -372 113 -205 309 -345 532 -382 75 -13 244 -6 308 12 265
75 457 264 536 527 40 131 33 337 -14 466 -93 252 -294 428 -561 491 -49 11
-235 10 -291 -1z"/>
<path d="M360 6706 c-168 -36 -313 -180 -349 -346 -6 -25 -8 -81 -6 -125 10
-232 190 -415 421 -430 125 -7 250 42 341 134 237 239 140 649 -180 755 -63
21 -159 26 -227 12z"/>
<path d="M6261 6704 c-196 -51 -330 -208 -347 -409 -27 -304 252 -548 548
-479 289 68 434 400 291 665 -32 60 -108 140 -164 172 -98 56 -229 76 -328 51z"/>
<path d="M1442 5938 c-123 -14 -243 -66 -342 -148 -222 -185 -293 -511 -169
-779 44 -95 82 -141 310 -373 112 -114 335 -340 494 -502 160 -163 292 -296
296 -296 3 0 13 24 23 53 118 335 381 633 703 796 45 23 105 50 134 60 l52 17
-299 303 c-786 796 -744 756 -834 801 -87 44 -159 63 -280 74 -14 1 -54 -2
-88 -6z"/>
<path d="M5247 5944 c-1 -1 -30 -4 -63 -8 -74 -8 -152 -33 -237 -78 -65 -34
-115 -83 -826 -803 l-283 -288 59 -23 c219 -82 438 -242 589 -429 99 -122 170
-246 235 -410 13 -33 25 -62 27 -65 1 -2 80 75 175 172 95 97 289 295 432 440
392 396 435 444 478 529 59 117 76 190 73 322 -5 186 -66 329 -197 459 -104
102 -263 173 -407 181 -29 1 -54 2 -55 1z"/>
<path d="M3290 4143 c-283 -47 -503 -226 -603 -488 -15 -38 -29 -88 -32 -110
-3 -22 -8 -47 -11 -55 -11 -31 -4 -180 11 -253 31 -153 98 -278 208 -388 94
-94 209 -161 339 -196 67 -18 260 -24 331 -11 505 101 760 670 505 1128 -89
160 -266 298 -448 350 -72 20 -239 33 -300 23z"/>
<path d="M448 3805 c-2 -2 -30 -5 -62 -9 -133 -14 -278 -120 -338 -247 -122
-258 14 -565 282 -639 293 -82 579 148 566 453 -5 91 -7 107 -29 160 -60 141
-204 254 -354 275 -35 5 -64 8 -65 7z"/>
<path d="M6347 3804 c-1 -1 -22 -5 -47 -7 -160 -19 -297 -128 -361 -288 -33
-82 -35 -214 -5 -301 29 -87 84 -167 149 -216 68 -52 103 -69 177 -86 281 -66
550 152 550 445 0 75 -30 179 -72 244 -74 117 -222 201 -366 209 -13 1 -24 1
-25 0z"/>
<path d="M1634 2524 c-605 -616 -613 -624 -653 -684 -81 -120 -112 -231 -107
-385 2 -89 8 -126 31 -194 66 -195 211 -340 407 -408 135 -47 321 -39 460 20
108 46 160 95 945 895 134 136 243 250 243 253 0 4 -12 10 -27 14 -28 7 -62
20 -143 58 -47 22 -211 116 -220 127 -3 3 -35 29 -72 58 -158 125 -311 325
-399 522 -27 60 -49 114 -49 120 0 5 -4 10 -8 10 -5 0 -188 -183 -408 -406z"/>
<path d="M4720 2893 c-35 -108 -139 -292 -228 -403 -153 -190 -368 -349 -580
-430 -50 -19 -92 -37 -92 -40 0 -6 294 -307 730 -747 365 -368 405 -398 585
-438 207 -46 432 22 586 176 118 120 180 267 185 439 4 128 -12 205 -65 315
-47 95 -60 111 -220 274 -68 69 -292 298 -499 509 -206 210 -379 382 -383 382
-4 0 -13 -17 -19 -37z"/>
<path d="M425 913 c-145 -23 -222 -61 -299 -143 -88 -96 -127 -201 -122 -330
4 -94 25 -160 75 -238 52 -79 149 -156 226 -177 17 -4 37 -10 45 -13 38 -11
163 -9 208 3 159 41 277 158 326 323 20 69 15 210 -9 272 -64 160 -208 279
-355 295 -30 4 -59 7 -65 9 -5 1 -19 1 -30 -1z"/>
<path d="M6297 908 c-91 -12 -194 -67 -260 -137 -185 -200 -164 -502 47 -672
82 -67 183 -99 296 -95 94 4 147 21 228 74 126 82 200 223 200 383 0 274 -239
483 -511 447z"/>
<path d="M3278 890 c-275 -87 -402 -393 -268 -648 84 -159 261 -256 438 -238
310 32 493 356 364 646 -43 97 -161 203 -260 235 -79 26 -202 28 -274 5z"/>
</g>
</svg>
