<svg width="20" height="20" viewBox="0 0 20 20" fill="none" xmlns="http://www.w3.org/2000/svg">
<path d="M7.29167 10.8333C8.3272 10.8333 9.16667 11.6728 9.16667 12.7083V15.625C9.16667 16.6605 8.3272 17.5 7.29167 17.5H4.375C3.33947 17.5 2.5 16.6605 2.5 15.625V12.7083C2.5 11.6728 3.33947 10.8333 4.375 10.8333H7.29167ZM15.625 10.8333C16.6605 10.8333 17.5 11.6728 17.5 12.7083V15.625C17.5 16.6605 16.6605 17.5 15.625 17.5H12.7083C11.6728 17.5 10.8333 16.6605 10.8333 15.625V12.7083C10.8333 11.6728 11.6728 10.8333 12.7083 10.8333H15.625ZM7.29167 2.5C8.3272 2.5 9.16667 3.33947 9.16667 4.375V7.29167C9.16667 8.3272 8.3272 9.16667 7.29167 9.16667H4.375C3.33947 9.16667 2.5 8.3272 2.5 7.29167V4.375C2.5 3.33947 3.33947 2.5 4.375 2.5H7.29167ZM15.625 2.5C16.6605 2.5 17.5 3.33947 17.5 4.375V7.29167C17.5 8.3272 16.6605 9.16667 15.625 9.16667H12.7083C11.6728 9.16667 10.8333 8.3272 10.8333 7.29167V4.375C10.8333 3.33947 11.6728 2.5 12.7083 2.5H15.625Z" fill="white"/>
</svg>
