<svg width="20" height="21" viewBox="0 0 20 21" fill="none" xmlns="http://www.w3.org/2000/svg">
<path fill-rule="evenodd" clip-rule="evenodd" d="M3.33268 13.8332V15.4998C3.33268 17.3415 4.82518 18.8332 6.66602 18.8332H14.9993C16.841 18.8332 18.3327 17.3415 18.3327 15.4998C18.3327 12.7257 18.3327 8.27484 18.3327 5.49984C18.3327 3.659 16.841 2.1665 14.9993 2.1665C12.6168 2.1665 9.04935 2.1665 6.66602 2.1665C4.82518 2.1665 3.33268 3.659 3.33268 5.49984V7.1665C3.33268 7.6265 3.70602 7.99984 4.16602 7.99984C4.62602 7.99984 4.99935 7.6265 4.99935 7.1665C4.99935 7.1665 4.99935 6.38567 4.99935 5.49984C4.99935 4.57984 5.74602 3.83317 6.66602 3.83317H14.9993C15.9202 3.83317 16.666 4.57984 16.666 5.49984V15.4998C16.666 16.4207 15.9202 17.1665 14.9993 17.1665C12.6168 17.1665 9.04935 17.1665 6.66602 17.1665C5.74602 17.1665 4.99935 16.4207 4.99935 15.4998C4.99935 14.6148 4.99935 13.8332 4.99935 13.8332C4.99935 13.374 4.62602 12.9998 4.16602 12.9998C3.70602 12.9998 3.33268 13.374 3.33268 13.8332ZM9.65435 9.6665L8.57685 8.58983C8.25185 8.264 8.25185 7.7365 8.57685 7.41067C8.90268 7.08567 9.43018 7.08567 9.75518 7.41067L12.2552 9.91067C12.581 10.2365 12.581 10.764 12.2552 11.0898L9.75518 13.5898C9.43018 13.9148 8.90268 13.9148 8.57685 13.5898C8.25185 13.264 8.25185 12.7365 8.57685 12.4107L9.65435 11.3332H2.49935C2.03935 11.3332 1.66602 10.9598 1.66602 10.4998C1.66602 10.0407 2.03935 9.6665 2.49935 9.6665H9.65435Z" fill="white"/>
</svg>
