<svg xmlns="http://www.w3.org/2000/svg" width="38" height="38" viewBox="0 0 38 38" fill="none">
    <path d="M18.3664 17.7332V4.4332C18.3664 3.38377 17.5158 2.5332 16.4664 2.5332C15.417 2.5332 14.5664 3.38377 14.5664 4.4332V17.0999" stroke="currentColor" stroke-width="1.5" stroke-miterlimit="10"/>
    <path d="M22.1667 18.3665V5.6998C22.1667 4.65037 21.3161 3.7998 20.2667 3.7998C19.2173 3.7998 18.3667 4.65037 18.3667 5.6998" stroke="currentColor" stroke-width="1.5" stroke-miterlimit="10"/>
    <path d="M21.5332 36.733V35.4663C21.5332 32.933 25.3332 31.033 25.3332 25.9663V8.54964C25.3332 7.67501 24.6245 6.96631 23.7499 6.96631C22.8752 6.96631 22.1665 7.67501 22.1665 8.54964" stroke="currentColor" stroke-width="1.5" stroke-miterlimit="10"/>
    <path d="M10.7665 36.7331V36.0998C10.7665 32.0819 7.1255 31.1851 6.44277 26.3389C6.2743 25.1438 5.92534 23.981 5.32937 22.9309L2.80174 18.4754C2.62567 18.1644 2.5332 17.799 2.5332 17.4165C2.5332 16.1922 3.52564 15.1998 4.74987 15.1998C5.4554 15.1998 6.08367 15.5291 6.48964 16.0428L9.63477 20.0239C9.75067 20.1715 9.93117 20.2665 10.1332 20.2665C10.4828 20.2665 10.7665 19.9827 10.7665 19.6331V5.6998C10.7665 4.65037 11.6171 3.7998 12.6665 3.7998C13.716 3.7998 14.5665 4.65037 14.5665 5.6998" stroke="currentColor" stroke-width="1.5" stroke-miterlimit="10"/>
    <path d="M3.90506 26.4961C3.84236 26.0939 3.76889 25.7583 3.65869 25.4194" stroke="currentColor" stroke-width="1.5" stroke-miterlimit="10"/>
    <path d="M8.23313 36.1001C8.23313 33.6491 5.26913 32.3242 4.18359 27.9795" stroke="currentColor" stroke-width="1.5" stroke-miterlimit="10"/>
    <path d="M25.333 9.76631L29.2343 6.73201C29.5561 6.48184 29.9601 6.33301 30.3997 6.33301C31.4491 6.33301 32.2997 7.18357 32.2997 8.23301C32.2997 8.84291 32.0121 9.38631 31.565 9.73337L25.333 14.5809" stroke="currentColor" stroke-width="1.5" stroke-miterlimit="10"/>
    <path d="M31.565 9.73377L33.0337 8.6324C33.2807 8.4481 33.7601 8.2334 34.1997 8.2334C35.2491 8.2334 36.0997 9.08397 36.0997 10.1334C36.0997 10.7433 35.8121 11.2867 35.365 11.6338L25.333 19.4371" stroke="currentColor" stroke-width="1.5" stroke-miterlimit="10"/>
    <path d="M32.7924 13.6348C33.073 13.4163 33.4207 13.2998 33.8038 13.2998C34.7222 13.2998 35.4663 14.044 35.4663 14.9623C35.4663 15.5234 35.1731 15.9997 34.7621 16.3202L25.333 23.6751" stroke="currentColor" stroke-width="1.5" stroke-miterlimit="10"/>
    <path d="M31.681 18.7239C31.9521 18.5124 32.2757 18.3667 32.6462 18.3667C33.5044 18.3667 34.1998 19.0621 34.1998 19.9203C34.1998 20.4314 33.9407 20.8696 33.5664 21.1616L25.1729 27.709" stroke="currentColor" stroke-width="1.5" stroke-miterlimit="10"/>
    <path d="M8.2334 13.933V5.69971" stroke="currentColor" stroke-width="1.5" stroke-miterlimit="10"/>
    <path d="M8.2334 4.43317V3.1665" stroke="currentColor" stroke-width="1.5" stroke-miterlimit="10"/>
    <path d="M31.0332 27.8667V30.4" stroke="currentColor" stroke-width="1.5" stroke-miterlimit="10"/>
    <path d="M31.0332 32.9331V35.4664" stroke="currentColor" stroke-width="1.5" stroke-miterlimit="10"/>
    <path d="M34.8331 31.6665H32.2998" stroke="currentColor" stroke-width="1.5" stroke-miterlimit="10"/>
    <path d="M29.7667 31.6665H27.2334" stroke="currentColor" stroke-width="1.5" stroke-miterlimit="10"/>
  </svg>